# ProBuilder 4.5.2
# https://unity3d.com/unity/features/worldbuilding/probuilder
# 11/8/2021 7:41:13 PM

mtllib ./Hexagon.mtl
o Hexagon

g Hexagon
v -1 0 0
v -1 0.1 0
v -0.5 0 0.8660254
v -0.5 0.1 0.8660254
v 0.5 0 0.8660254
v 0.5 0.1 0.8660254
v 1 0 -8.742278E-08
v 1 0.1 -8.742278E-08
v 0.4999999 0 -0.8660254
v 0.4999999 0.1 -0.8660254
v -0.4999999 0 -0.8660254
v -0.4999999 0.1 -0.8660254
v 0 0 0
v 0 0.1 0

vt -0.5 0
vt -0.5 0.1
vt 0.5000001 0
vt 0.5000001 0.1
vt -0.5000001 0
vt -0.5000001 0.1
vt 0.4999999 0
vt 0.4999999 0.1
vt -1 0
vt 0 0
vt -0.5 0.8660254
vt 1 0
vt 0.5 0.8660254
vt 0.4999999 -0.8660254
vt -0.4999999 -0.8660254

vn -0.8660254 0 0.5
vn 5.960464E-08 0 1
vn 0.8660254 0 0.5
vn 0.8660254 0 -0.5000001
vn 0 0 -1
vn -0.8660254 0 -0.5000001
vn 0 -1 0
vn 0 1 0

usemtl White
f 1/9/7 13/10/7 3/11/7
f 3/11/7 13/10/7 5/13/7
f 5/13/7 13/10/7 7/12/7
f 7/12/7 13/10/7 9/14/7
f 9/14/7 13/10/7 11/15/7
f 11/15/7 13/10/7 1/9/7
f 4/13/8 14/10/8 2/12/8
f 6/11/8 14/10/8 4/13/8
f 8/9/8 14/10/8 6/11/8
f 10/15/8 14/10/8 8/9/8
f 12/14/8 14/10/8 10/15/8
f 2/12/8 14/10/8 12/14/8
f 4/4/1 2/2/1 1/1/1
f 1/1/1 3/3/1 4/4/1
f 6/8/2 4/6/2 3/5/2
f 3/5/2 5/7/2 6/8/2
f 8/4/3 6/6/3 5/5/3
f 5/5/3 7/3/3 8/4/3
f 10/4/4 8/6/4 7/5/4
f 7/5/4 9/3/4 10/4/4
f 12/8/5 10/2/5 9/1/5
f 9/1/5 11/7/5 12/8/5
f 2/4/6 12/6/6 11/5/6
f 11/5/6 1/3/6 2/4/6

